<?xml version="1.0" standalone="no"?>
<!DOCTYPE svg PUBLIC "-//W3C//DTD SVG 20010904//EN"
 "http://www.w3.org/TR/2001/REC-SVG-20010904/DTD/svg10.dtd">
<svg version="1.0" xmlns="http://www.w3.org/2000/svg"
 width="320.000000pt" height="320.000000pt" viewBox="0 0 320.000000 320.000000"
 preserveAspectRatio="xMidYMid meet">
<metadata>
Created by potrace 1.14, written by Peter Selinger 2001-2017
</metadata>
<g transform="translate(0.000000,320.000000) scale(0.100000,-0.100000)"
fill="#000000" stroke="none">
<path d="M1469 3066 c-2 -2 -29 -6 -59 -10 -30 -3 -66 -8 -80 -11 -14 -3 -45
-10 -70 -15 -58 -12 -200 -61 -270 -93 -30 -14 -59 -27 -65 -28 -5 -2 -14 -7
-20 -11 -5 -5 -35 -24 -66 -42 -127 -75 -278 -204 -366 -314 -21 -26 -41 -48
-45 -50 -5 -2 -8 -10 -8 -17 0 -7 -4 -15 -8 -17 -20 -8 -81 -109 -138 -228
-60 -125 -99 -251 -130 -420 -18 -100 -12 -360 11 -475 2 -11 7 -36 10 -55 4
-19 14 -53 22 -75 8 -22 14 -42 14 -45 -2 -12 35 -112 71 -189 37 -80 137
-245 162 -266 6 -5 23 -26 37 -45 75 -100 244 -246 374 -321 133 -77 319 -151
440 -174 22 -5 49 -10 60 -12 118 -22 333 -28 437 -12 29 5 68 11 85 14 61 9
173 40 253 69 49 18 212 96 220 105 3 3 17 12 31 20 98 50 319 248 392 351
157 222 238 403 282 630 27 135 27 394 1 535 -10 55 -22 107 -27 116 -4 9 -10
27 -13 40 -8 41 -42 131 -80 213 -36 76 -136 241 -160 261 -6 6 -23 26 -38 46
-40 53 -156 165 -223 216 -33 24 -68 50 -77 58 -9 7 -36 24 -60 37 -24 13 -45
25 -48 28 -5 6 -99 52 -181 88 -66 29 -220 70 -329 86 -82 12 -331 21 -341 12z"/>
</g>
</svg>
